<svg xmlns="http://www.w3.org/2000/svg" width="26.677" height="19.208" viewBox="0 0 26.677 19.208">
  <g id="Group_626" data-name="Group 626" transform="translate(-1496.162 -3022.049)">
    <path id="Path_75" data-name="Path 75" d="M19.429,29.369H7.248A7.256,7.256,0,0,1,0,22.121V17.409A7.2,7.2,0,0,1,2.859,11.64a.711.711,0,0,1,.862,1.132,5.786,5.786,0,0,0-2.3,4.637v4.712a5.832,5.832,0,0,0,5.825,5.825H19.429a5.832,5.832,0,0,0,5.825-5.825V17.409a5.832,5.832,0,0,0-5.825-5.825H7.248a5.942,5.942,0,0,0-.778.052.711.711,0,0,1-.187-1.41,7.371,7.371,0,0,1,.965-.064H19.429a7.256,7.256,0,0,1,7.248,7.248v4.712a7.256,7.256,0,0,1-7.248,7.248" transform="translate(1496.162 3011.888)"/>
    <path id="Path_76" data-name="Path 76" d="M30.405,33.316a.711.711,0,0,1-.711-.711V24.55a.711.711,0,0,1,1.067-.616l6.976,4.027a.712.712,0,0,1,0,1.232l-2.2,1.27a.711.711,0,1,1-.711-1.232l1.132-.654-4.841-2.8v5.591l1.248-.72a.712.712,0,0,1,.711,1.233L30.761,33.22a.71.71,0,0,1-.356.1" transform="translate(1477.031 3003.076)"/>
  </g>
</svg>
