<svg xmlns="http://www.w3.org/2000/svg" width="23.476" height="23.476" viewBox="0 0 23.476 23.476">
  <g id="Group_623" data-name="Group 623" transform="translate(-1612.421 -3019.502)">
    <path id="Path_66" data-name="Path 66" d="M338.585,26.476a11.644,11.644,0,0,1-4.861-1.051.712.712,0,0,1,.59-1.3,10.228,10.228,0,0,0,4.272.923c.347,0,.7-.017,1.035-.052a10.315,10.315,0,1,0-9.05-3.769.711.711,0,0,1-1.105.9,11.738,11.738,0,1,1,10.3,4.289c-.386.038-.782.058-1.177.058" transform="translate(1285.574 3016.502)"/>
    <path id="Path_68" data-name="Path 68" d="M356.558,36.074a.712.712,0,0,1-.711-.711V22.913A3.772,3.772,0,0,1,359.76,19h2.3a.711.711,0,1,1,0,1.423h-2.3a2.4,2.4,0,0,0-2.49,2.493V35.362a.712.712,0,0,1-.711.711" transform="translate(1266.891 3006.193)"/>
    <path id="Path_69" data-name="Path 69" d="M347.087,41.423h-2.528a.711.711,0,0,1,0-1.423h2.528a.711.711,0,1,1,0,1.423" transform="translate(1274.621 2992.663)"/>
    <path id="Path_70" data-name="Path 70" d="M361.836,41.423h-5.277a.711.711,0,0,1,0-1.423h5.277a.711.711,0,1,1,0,1.423" transform="translate(1266.891 2992.663)"/>
  </g>
</svg>
